<?xml version="1.0" standalone="no"?>
<!DOCTYPE svg PUBLIC "-//W3C//DTD SVG 20010904//EN"
 "http://www.w3.org/TR/2001/REC-SVG-20010904/DTD/svg10.dtd">
<svg version="1.0" xmlns="http://www.w3.org/2000/svg"
 width="350.000000pt" height="60.000000pt" viewBox="0 0 350.000000 60.000000"
 preserveAspectRatio="xMidYMid meet">

<g transform="translate(0.000000,60.000000) scale(0.100000,-0.100000)"
fill="#000000" stroke="none">
<path d="M130 491 c0 -35 13 -41 91 -41 78 0 79 0 79 25 0 25 -1 25 -85 25
-47 0 -85 -4 -85 -9z"/>
<path d="M420 335 l0 -165 25 0 25 0 0 165 0 165 -25 0 -25 0 0 -165z"/>
<path d="M640 390 l0 -110 25 0 25 0 0 110 0 110 -25 0 -25 0 0 -110z"/>
<path d="M750 305 l0 -195 110 0 110 0 0 25 c0 24 -2 24 -82 27 l-83 3 0 85 0
85 30 3 c16 2 53 1 82 -3 l53 -6 0 -80 c0 -78 0 -79 25 -79 25 0 25 1 25 80 0
79 0 80 -25 80 -21 0 -25 5 -25 30 0 25 4 30 25 30 20 0 25 5 25 25 0 20 -5
25 -25 25 -20 0 -25 -5 -25 -25 0 -25 -1 -25 -86 -25 l-85 0 3 28 c3 27 4 27
86 30 80 3 82 3 82 27 l0 25 -110 0 -110 0 0 -195z"/>
<path d="M1080 305 l0 -195 140 0 140 0 0 24 c0 24 -1 24 -107 25 -59 1 -111
5 -116 10 -4 4 -7 43 -5 87 l3 79 58 3 c53 3 57 5 57 27 0 24 -3 25 -61 25
-60 0 -60 0 -57 28 3 27 4 27 86 30 80 3 82 3 82 27 l0 25 -110 0 -110 0 0
-195z"/>
<path d="M1310 475 c0 -20 5 -25 25 -25 20 0 25 5 25 25 0 20 -5 25 -25 25
-20 0 -25 -5 -25 -25z"/>
<path d="M1420 305 l0 -195 25 0 c24 0 24 0 27 112 l3 113 83 3 c80 3 82 3 82
27 0 20 5 25 25 25 20 0 25 5 25 25 0 20 -5 25 -25 25 -20 0 -25 -5 -25 -25 0
-25 -1 -25 -86 -25 l-85 0 3 28 c3 27 4 27 86 30 80 3 82 3 82 27 l0 25 -110
0 -110 0 0 -195z"/>
<path d="M1750 305 l0 -195 25 0 c24 0 24 0 27 112 l3 113 83 3 82 3 0 -116 0
-115 25 0 25 0 0 195 0 195 -25 0 c-24 0 -25 -3 -25 -55 l0 -55 -85 0 -85 0 0
55 c0 52 -1 55 -25 55 l-25 0 0 -195z"/>
<path d="M2130 491 c0 -35 13 -41 91 -41 78 0 79 0 79 25 0 25 -1 25 -85 25
-47 0 -85 -4 -85 -9z"/>
<path d="M2420 475 c0 -24 3 -25 55 -25 l55 0 0 -170 0 -170 25 0 25 0 2 168
3 167 53 3 c48 3 52 5 52 28 l0 24 -135 0 -135 0 0 -25z"/>
<path d="M2800 491 c0 -35 13 -41 91 -41 78 0 79 0 79 25 0 25 -1 25 -85 25
-47 0 -85 -4 -85 -9z"/>
<path d="M3140 475 l0 -25 105 0 105 0 0 25 0 25 -105 0 -105 0 0 -25z"/>
<path d="M80 305 l0 -135 25 0 25 0 0 135 0 135 -25 0 -25 0 0 -135z"/>
<path d="M300 415 c0 -20 5 -25 25 -25 20 0 25 5 25 25 0 20 -5 25 -25 25 -20
0 -25 -5 -25 -25z"/>
<path d="M2080 305 l0 -135 25 0 25 0 0 135 0 135 -25 0 -25 0 0 -135z"/>
<path d="M2300 305 l0 -135 25 0 25 0 0 135 0 135 -25 0 -25 0 0 -135z"/>
<path d="M2750 305 l0 -135 25 0 25 0 0 135 0 135 -25 0 -25 0 0 -135z"/>
<path d="M2970 305 l0 -135 25 0 25 0 0 135 0 135 -25 0 -25 0 0 -135z"/>
<path d="M3080 415 c0 -20 5 -25 25 -25 20 0 25 5 25 25 0 20 -5 25 -25 25
-20 0 -25 -5 -25 -25z"/>
<path d="M3140 365 c0 -23 4 -25 43 -25 23 0 59 -3 80 -6 l37 -7 0 -78 c0 -78
0 -79 25 -79 25 0 25 1 25 80 0 79 0 80 -25 80 -21 0 -25 5 -25 30 l0 30 -80
0 c-79 0 -80 0 -80 -25z"/>
<path d="M640 220 c0 -47 2 -50 25 -50 23 0 25 3 25 50 0 47 -2 50 -25 50 -23
0 -25 -3 -25 -50z"/>
<path d="M300 195 c0 -20 5 -25 25 -25 20 0 25 5 25 25 0 20 -5 25 -25 25 -20
0 -25 -5 -25 -25z"/>
<path d="M3080 195 c0 -20 5 -25 25 -25 20 0 25 5 25 25 0 20 -5 25 -25 25
-20 0 -25 -5 -25 -25z"/>
<path d="M136 144 c-12 -31 -5 -34 79 -34 84 0 85 0 85 25 0 25 -1 25 -79 25
-63 0 -80 -3 -85 -16z"/>
<path d="M480 135 c0 -25 1 -25 80 -25 79 0 80 0 80 25 0 25 -1 25 -80 25 -79
0 -80 0 -80 -25z"/>
<path d="M2136 144 c-12 -31 -5 -34 79 -34 84 0 85 0 85 25 0 25 -1 25 -79 25
-63 0 -80 -3 -85 -16z"/>
<path d="M2806 144 c-12 -31 -5 -34 79 -34 84 0 85 0 85 25 0 25 -1 25 -79 25
-63 0 -80 -3 -85 -16z"/>
<path d="M3140 135 c0 -25 1 -25 80 -25 79 0 80 0 80 25 0 25 -1 25 -80 25
-79 0 -80 0 -80 -25z"/>
</g>
</svg>
